name C:\Users\r0593348\3dpredictsim\Results\Batchsim_tmt_linear\Pog_s1_tmt_aCst_d02_k1000_ig24_act.mot
datacolumns 128
datarows 4
range 0.62167371 0.65897414
endheader
time	pelvis_tilt	pelvis_list	pelvis_rotation	pelvis_tx	pelvis_ty	pelvis_tz	hip_flexion_l	hip_adduction_l	hip_rotation_l	hip_flexion_r	hip_adduction_r	hip_rotation_r	knee_angle_l	knee_angle_r	ankle_angle_l	ankle_angle_r	subtalar_angle_l	subtalar_angle_r	tmt_angle_l	tmt_angle_r	mtp_angle_l	mtp_angle_r	lumbar_extension	lumbar_bending	lumbar_rotation	arm_flex_l	arm_add_l	arm_rot_l	arm_flex_r	arm_add_r	arm_rot_r	elbow_flex_l	elbow_flex_r	pro_sup_l	pro_sup_r	glut_med1_l/activation	glut_med2_l/activation	glut_med3_l/activation	glut_min1_l/activation	glut_min2_l/activation	glut_min3_l/activation	semimem_l/activation	semiten_l/activation	bifemlh_l/activation	bifemsh_l/activation	sar_l/activation	add_long_l/activation	add_brev_l/activation	add_mag1_l/activation	add_mag2_l/activation	add_mag3_l/activation	tfl_l/activation	pect_l/activation	grac_l/activation	glut_max1_l/activation	glut_max2_l/activation	glut_max3_l/activation	iliacus_l/activation	psoas_l/activation	quad_fem_l/activation	gem_l/activation	peri_l/activation	rect_fem_l/activation	vas_med_l/activation	vas_int_l/activation	vas_lat_l/activation	med_gas_l/activation	lat_gas_l/activation	soleus_l/activation	tib_post_l/activation	flex_dig_l/activation	flex_hal_l/activation	tib_ant_l/activation	per_brev_l/activation	per_long_l/activation	per_tert_l/activation	ext_dig_l/activation	ext_hal_l/activation	ercspn_l/activation	intobl_l/activation	extobl_l/activation	glut_med1_r/activation	glut_med2_r/activation	glut_med3_r/activation	glut_min1_r/activation	glut_min2_r/activation	glut_min3_r/activation	semimem_r/activation	semiten_r/activation	bifemlh_r/activation	bifemsh_r/activation	sar_r/activation	add_long_r/activation	add_brev_r/activation	add_mag1_r/activation	add_mag2_r/activation	add_mag3_r/activation	tfl_r/activation	pect_r/activation	grac_r/activation	glut_max1_r/activation	glut_max2_r/activation	glut_max3_r/activation	iliacus_r/activation	psoas_r/activation	quad_fem_r/activation	gem_r/activation	peri_r/activation	rect_fem_r/activation	vas_med_r/activation	vas_int_r/activation	vas_lat_r/activation	med_gas_r/activation	lat_gas_r/activation	soleus_r/activation	tib_post_r/activation	flex_dig_r/activation	flex_hal_r/activation	tib_ant_r/activation	per_brev_r/activation	per_long_r/activation	per_tert_r/activation	ext_dig_r/activation	ext_hal_r/activation	ercspn_r/activation	intobl_r/activation	extobl_r/activation	
          0.62167371	         -2.92985021	          1.13478860	         -8.23799404	          0.77709214	          0.85744367	          0.00245658	         32.74823988	          0.60802176	         -0.13743612	        -16.31138655	         -2.00717189	          8.44013289	        -14.97361325	        -15.88658882	          9.19639759	         -9.82787783	         -0.39672037	         13.11035142	          0.02340940	          1.00825833	         -0.09087693	         30.87311410	         -0.64676685	          1.29484671	          3.22601257	        -10.07595991	        -13.57627783	         12.44509761	          4.34693678	        -13.50434899	         18.71885355	         15.54706135	         42.95535133	         86.51662706	         86.51662706	          0.05000023	          0.05000007	          0.05000035	          0.05000007	          0.05000009	          0.05000029	          0.17465184	          0.06036140	          0.12919739	          0.05129456	          0.05000083	          0.06036238	          0.08525087	          0.19797472	          0.15374186	          0.12126617	          0.06036125	          0.06035845	          0.06036185	          0.05000018	          0.05441107	          0.09981085	          0.05736325	          0.05801100	          0.14904246	          0.05000067	          0.05000020	          0.05000012	          0.08846917	          0.09797158	          0.08309577	          0.06036122	          0.06036122	          0.06036122	          0.05000003	          0.05000028	          0.05000324	          0.51181700	          0.34578072	          0.20671816	          0.12007324	          0.55298039	          0.35288361	          0.05000030	          0.13884268	          0.11503117	          0.18143867	          0.08283021	          0.07072615	          0.20629225	          0.12820672	          0.08266553	          0.05000077	          0.05000008	          0.05000007	          0.05000052	          0.10619047	          0.05000024	          0.05000006	          0.05000007	          0.05000017	          0.05000013	          0.18354371	          0.05000065	          0.05000019	          0.05000135	          0.05000064	          0.05000025	          0.42962563	          0.59227592	          0.05000009	          0.05000039	          0.06416603	          0.22670449	          0.11240621	          0.11037052	          0.10388794	          0.15477385	          0.23622545	          0.06036121	          0.17224505	          0.20290785	          0.22086081	          0.05000000	          0.34385915	          0.33732542	          0.05000002	          0.17269960	          0.05000004	          0.05000000	          0.05000000	          0.05000001	
          0.63410719	         -2.92898740	          1.07812776	         -8.43732803	          0.79715159	          0.85601792	          0.00212705	         32.07841623	          0.86524409	          0.06398714	        -16.60363140	         -2.25345317	          8.20772946	        -15.00998047	        -16.97815608	          8.58656701	        -12.83678454	         -0.79953298	         13.59651170	          0.03972606	          0.93295540	         -0.08541670	         32.46093491	         -0.38798918	          1.13823864	          3.32598259	        -11.53530100	        -13.56733287	         12.31320628	          3.83480517	        -13.56472405	         18.90178507	         15.55120006	         44.26546839	         86.51662706	         86.51662706	          0.07601460	          0.07529660	          0.05000008	          0.06036146	          0.06036120	          0.05000093	          0.14467224	          0.05000018	          0.10702020	          0.05000007	          0.05000051	          0.05000101	          0.07061728	          0.19627899	          0.20304149	          0.13751293	          0.05000021	          0.05000039	          0.05000059	          0.06036120	          0.08646864	          0.11891655	          0.05000008	          0.05000022	          0.36797976	          0.06036146	          0.05801245	          0.07286952	          0.22357510	          0.22566781	          0.19955586	          0.05000000	          0.05000000	          0.05000000	          0.05000002	          0.07286904	          0.05000017	          0.67809075	          0.37346362	          0.23423535	          0.51887600	          0.62523775	          0.44985130	          0.05000000	          0.11500982	          0.09528565	          0.15029409	          0.06861214	          0.06036141	          0.17088147	          0.10619959	          0.06847575	          0.05000062	          0.05000005	          0.05000007	          0.05000009	          0.08796257	          0.13088091	          0.14664484	          0.08873194	          0.05000257	          0.05000035	          0.15203777	          0.08134711	          0.05003639	          0.05000129	          0.05000082	          0.05000076	          0.35587881	          0.49060958	          0.07286948	          0.06036571	          0.06036128	          0.18778983	          0.11871026	          0.12820503	          0.10388444	          0.12820635	          0.19567648	          0.05000000	          0.14267855	          0.16807798	          0.18294924	          0.20023867	          0.35486216	          0.31501464	          0.48056153	          0.36189217	          0.05000044	          0.05286177	          0.06569057	          0.05985763	
          0.64654066	         -2.92217071	          1.02556215	         -8.59786314	          0.81742580	          0.85429280	          0.00181652	         31.29417727	          1.11575176	          0.32677085	        -16.70252854	         -2.46102788	          7.97465567	        -15.71727297	        -18.42942263	          7.85456814	        -15.63399624	         -1.21772575	         14.04507902	         -0.03616040	          0.77505563	         -0.15274036	         33.22488710	         -0.12173313	          0.96107508	          3.40850488	        -12.97618243	        -13.56671226	         12.24717825	          3.25174343	        -13.63467968	         19.01098234	         15.53110315	         45.55647386	         86.51662706	         86.51662706	          0.24118997	          0.21773542	          0.40925110	          0.05000025	          0.05000008	          0.32406031	          0.12326511	          0.05000027	          0.10385151	          0.05000004	          0.05000013	          0.07286971	          0.18229121	          0.23967015	          0.22520058	          0.16683147	          0.05000007	          0.06152749	          0.12569192	          0.05000004	          0.17416116	          0.17736920	          0.05466889	          0.05000018	          0.30481472	          0.05000033	          0.26991121	          0.06036120	          0.18519763	          0.18693112	          0.16530139	          0.06036121	          0.06036121	          0.06036122	          0.06036118	          0.06036098	          0.06036121	          0.58028882	          0.37092987	          0.19402806	          0.42980962	          0.64094535	          0.37263298	          0.05286253	          0.09526803	          0.07892951	          0.13740359	          0.05683465	          0.05000019	          0.14154911	          0.08797006	          0.05672166	          0.05806184	          0.06036122	          0.06036122	          0.05000011	          0.07286356	          0.16814591	          0.27265516	          0.12223017	          0.06036601	          0.09646741	          0.12593994	          0.06738488	          0.05371484	          0.05000473	          0.05000910	          0.06036059	          0.29479091	          0.40639466	          0.06036122	          0.05000390	          0.05000006	          0.15555501	          0.09833322	          0.10619818	          0.08605230	          0.10619925	          0.16208789	          0.05093175	          0.11818725	          0.13922679	          0.15154534	          0.36920204	          0.45160696	          0.33288991	          0.71598283	          0.48555683	          0.25715662	          0.07509643	          0.05441454	          0.05000004	
          0.65897414	         -2.91227078	          0.97930025	         -8.71336291	          0.83756727	          0.85235186	          0.00150968	         30.42804873	          1.36212199	          0.61307403	        -16.56505678	         -2.62672626	          7.75697750	        -16.54210815	        -20.30667985	          7.32336476	        -17.84097988	         -1.64685042	         14.44304060	         -0.01903264	          0.58055618	         -0.16014454	         32.32172778	          0.12301683	          0.76283180	          3.47093801	        -14.31985414	        -13.57694971	         12.30401492	          2.65354001	        -13.70323341	         19.04769012	         15.43598978	         46.79678089	         86.51662706	         86.51662706	          0.31497975	          0.39000249	          0.49090390	          0.15946693	          0.22478163	          0.26843437	          0.10210620	          0.09009387	          0.08602503	          0.07270349	          0.05000020	          0.06036136	          0.15100025	          0.19852996	          0.21490502	          0.17817275	          0.05000006	          0.05096615	          0.10411651	          0.27422595	          0.23745089	          0.20226403	          0.05000001	          0.05000001	          0.25249223	          0.07257078	          0.22358008	          0.05000000	          0.15340790	          0.23054546	          0.18099917	          0.05000000	          0.05000000	          0.05000000	          0.05000000	          0.05000005	          0.05000003	          0.73084112	          0.39966274	          0.19865456	          0.68823285	          0.73279670	          0.54664042	          0.06533410	          0.07891493	          0.06538097	          0.27237188	          0.05000003	          0.05000001	          0.19817545	          0.07286971	          0.05000012	          0.08639111	          0.05000008	          0.05000010	          0.05000009	          0.06035657	          0.13928313	          0.23308717	          0.10124907	          0.05000433	          0.07990853	          0.10432191	          0.06036176	          0.05000019	          0.05000030	          0.05000019	          0.05000014	          0.24418897	          0.39177992	          0.05000003	          0.05000013	          0.05000008	          0.12885342	          0.08145713	          0.08796991	          0.08796987	          0.08796976	          0.13426491	          0.05000001	          0.09789998	          0.11532802	          0.12553203	          0.30582716	          0.37408699	          0.27574822	          0.65731897	          0.65038396	          0.21301475	          0.11572446	          0.05000000	          0.05000000	
